<svg width="30" height="30" viewBox="0 0 30 30" fill="none" xmlns="http://www.w3.org/2000/svg">
<g clip-path="url(#clip0_54_874)">
<path d="M23.75 7.5H16.25V3.75C16.25 3.41848 16.1183 3.10054 15.8839 2.86612C15.6495 2.6317 15.3315 2.5 15 2.5C14.6685 2.5 14.3505 2.6317 14.1161 2.86612C13.8817 3.10054 13.75 3.41848 13.75 3.75V7.5H6.25C4.59301 7.50198 3.00445 8.1611 1.83277 9.33278C0.661102 10.5044 0.00198482 12.093 0 13.75L0 18.75C0.00198482 20.407 0.661102 21.9956 1.83277 23.1672C3.00445 24.3389 4.59301 24.998 6.25 25H23.75C25.407 24.998 26.9956 24.3389 28.1672 23.1672C29.3389 21.9956 29.998 20.407 30 18.75V13.75C29.998 12.093 29.3389 10.5044 28.1672 9.33278C26.9956 8.1611 25.407 7.50198 23.75 7.5ZM27.5 18.75C27.5 19.7446 27.1049 20.6984 26.4017 21.4017C25.6984 22.1049 24.7446 22.5 23.75 22.5H6.25C5.25544 22.5 4.30161 22.1049 3.59835 21.4017C2.89509 20.6984 2.5 19.7446 2.5 18.75V13.75C2.5 12.7554 2.89509 11.8016 3.59835 11.0983C4.30161 10.3951 5.25544 10 6.25 10H23.75C24.7446 10 25.6984 10.3951 26.4017 11.0983C27.1049 11.8016 27.5 12.7554 27.5 13.75V18.75Z" fill="#EAF9FF"/>
<path d="M18.75 17.5H11.25C10.9185 17.5 10.6005 17.6317 10.3661 17.8661C10.1317 18.1005 10 18.4185 10 18.75C10 19.0815 10.1317 19.3995 10.3661 19.6339C10.6005 19.8683 10.9185 20 11.25 20H18.75C19.0815 20 19.3995 19.8683 19.6339 19.6339C19.8683 19.3995 20 19.0815 20 18.75C20 18.4185 19.8683 18.1005 19.6339 17.8661C19.3995 17.6317 19.0815 17.5 18.75 17.5Z" fill="#EAF9FF"/>
<path d="M12.5 15H13.75C14.0815 15 14.3995 14.8683 14.6339 14.6339C14.8683 14.3995 15 14.0815 15 13.75C15 13.4185 14.8683 13.1005 14.6339 12.8661C14.3995 12.6317 14.0815 12.5 13.75 12.5H12.5C12.1685 12.5 11.8505 12.6317 11.6161 12.8661C11.3817 13.1005 11.25 13.4185 11.25 13.75C11.25 14.0815 11.3817 14.3995 11.6161 14.6339C11.8505 14.8683 12.1685 15 12.5 15Z" fill="#EAF9FF"/>
<path d="M23.75 12.5H18.75C18.4185 12.5 18.1005 12.6317 17.8661 12.8661C17.6317 13.1005 17.5 13.4185 17.5 13.75C17.5 14.0815 17.6317 14.3995 17.8661 14.6339C18.1005 14.8683 18.4185 15 18.75 15H23.75C24.0815 15 24.3995 14.8683 24.6339 14.6339C24.8683 14.3995 25 14.0815 25 13.75C25 13.4185 24.8683 13.1005 24.6339 12.8661C24.3995 12.6317 24.0815 12.5 23.75 12.5Z" fill="#EAF9FF"/>
<path d="M7.5 12.5H6.25C5.91848 12.5 5.60054 12.6317 5.36612 12.8661C5.1317 13.1005 5 13.4185 5 13.75C5 14.0815 5.1317 14.3995 5.36612 14.6339C5.60054 14.8683 5.91848 15 6.25 15H7.5C7.83152 15 8.14946 14.8683 8.38388 14.6339C8.6183 14.3995 8.75 14.0815 8.75 13.75C8.75 13.4185 8.6183 13.1005 8.38388 12.8661C8.14946 12.6317 7.83152 12.5 7.5 12.5Z" fill="#EAF9FF"/>
<path d="M6.25 20C6.94036 20 7.5 19.4404 7.5 18.75C7.5 18.0596 6.94036 17.5 6.25 17.5C5.55964 17.5 5 18.0596 5 18.75C5 19.4404 5.55964 20 6.25 20Z" fill="#EAF9FF"/>
<path d="M23.75 20C24.4404 20 25 19.4404 25 18.75C25 18.0596 24.4404 17.5 23.75 17.5C23.0596 17.5 22.5 18.0596 22.5 18.75C22.5 19.4404 23.0596 20 23.75 20Z" fill="#EAF9FF"/>
</g>
<defs>
<clipPath id="clip0_54_874">
<rect width="30" height="30" fill="white"/>
</clipPath>
</defs>
</svg>
