<svg width="18" height="18" viewBox="0 0 18 18" fill="none" xmlns="http://www.w3.org/2000/svg">
<g clip-path="url(#clip0_2096_2545)">
<path d="M16.1572 5.32801C16.1677 5.48626 16.1677 5.64526 16.1677 5.80501C16.1677 10.6853 12.4522 16.3125 5.66025 16.3125V16.3095C3.654 16.3125 1.689 15.738 0 14.6543C0.29175 14.6895 0.585 14.7068 0.879 14.7075C2.5425 14.709 4.158 14.151 5.46525 13.1235C3.885 13.0935 2.499 12.063 2.01525 10.5585C2.56875 10.665 3.13875 10.6433 3.6825 10.4955C1.959 10.1475 0.72 8.63326 0.72 6.87526C0.72 6.85951 0.72 6.84376 0.72 6.82876C1.23375 7.11526 1.80825 7.27351 2.39625 7.29076C0.77325 6.20701 0.27225 4.04851 1.2525 2.36101C3.1275 4.66801 5.89425 6.07051 8.8635 6.21976C8.56575 4.93726 8.973 3.59326 9.9315 2.69101C11.4187 1.29226 13.758 1.36426 15.1567 2.85151C15.984 2.68876 16.7768 2.38501 17.502 1.95526C17.226 2.81026 16.6493 3.53626 15.8783 3.99826C16.611 3.91051 17.3258 3.71476 18 3.41626C17.5042 4.15801 16.8802 4.80526 16.1572 5.32801Z" fill="#414042"/>
</g>
<defs>
<clipPath id="clip0_2096_2545">
<rect width="18" height="18" fill="white"/>
</clipPath>
</defs>
</svg>
