<svg width="30" height="30" viewBox="0 0 30 30" fill="none" xmlns="http://www.w3.org/2000/svg">
<path d="M15 25H6.5C5.09987 25 4.3998 25 3.86502 24.7275C3.39462 24.4878 3.01217 24.1054 2.77248 23.635C2.5 23.1002 2.5 22.4001 2.5 21V9C2.5 7.59987 2.5 6.8998 2.77248 6.36502C3.01217 5.89462 3.39462 5.51217 3.86502 5.27248C4.3998 5 5.09987 5 6.5 5H7C9.80026 5 11.2004 5 12.27 5.54497C13.2108 6.02433 13.9757 6.78924 14.455 7.73005C15 8.79961 15 10.1997 15 13M15 25V13M15 25H23.5C24.9001 25 25.6002 25 26.135 24.7275C26.6054 24.4878 26.9878 24.1054 27.2275 23.635C27.5 23.1002 27.5 22.4001 27.5 21V9C27.5 7.59987 27.5 6.8998 27.2275 6.36502C26.9878 5.89462 26.6054 5.51217 26.135 5.27248C25.6002 5 24.9001 5 23.5 5H23C20.1997 5 18.7996 5 17.73 5.54497C16.7892 6.02433 16.0243 6.78924 15.545 7.73005C15 8.79961 15 10.1997 15 13" stroke="#222224" stroke-width="2" stroke-linecap="round" stroke-linejoin="round"/>
</svg>
