<svg width="24" height="25" viewBox="0 0 24 25" fill="none" xmlns="http://www.w3.org/2000/svg">
<g clip-path="url(#clip0_2446_335)">
<path d="M23.498 6.44385C23.222 5.36156 22.409 4.50843 21.376 4.21885C19.505 3.69385 12 3.69385 12 3.69385C12 3.69385 4.495 3.69385 2.623 4.21885C1.591 4.50843 0.778 5.36051 0.502 6.44385C0 8.40635 0 12.5001 0 12.5001C0 12.5001 0 16.5938 0.502 18.5563C0.778 19.6386 1.591 20.4918 2.624 20.7814C4.495 21.3064 12 21.3064 12 21.3064C12 21.3064 19.505 21.3064 21.377 20.7814C22.409 20.4918 23.222 19.6397 23.499 18.5563C24 16.5938 24 12.5001 24 12.5001C24 12.5001 24 8.40635 23.498 6.44385ZM9.546 16.2178V8.78239L15.818 12.5001L9.546 16.2178Z" fill="#218B47"/>
</g>
<defs>
<clipPath id="clip0_2446_335">
<rect width="24" height="25" fill="white"/>
</clipPath>
</defs>
</svg>
