<svg width="123" height="63" viewBox="0 0 123 63" fill="none" xmlns="http://www.w3.org/2000/svg">
<path d="M5.55176 51.2463V28.0011C5.55176 27.4296 5.77871 26.8815 6.18271 26.4773C6.58671 26.073 7.1347 25.8458 7.7062 25.8455H22.5682V30.6454H11.2709V35.9627H21.3297V40.7625H11.2709V51.2441L5.55176 51.2463Z" fill="#05014A"/>
<path d="M48.6691 26.3971C48.6917 26.8385 48.6161 27.2795 48.4478 27.6882C48.2796 28.0969 48.0228 28.4632 47.696 28.7607C47.0621 29.3169 46.2477 29.6235 45.4045 29.6235C44.5612 29.6235 43.7468 29.3169 43.113 28.7607C42.4649 28.1875 42.1416 27.3997 42.1431 26.3971C42.1445 25.3946 42.4678 24.6063 43.113 24.0324C43.7468 23.4763 44.5612 23.1696 45.4045 23.1696C46.2477 23.1696 47.0621 23.4763 47.696 24.0324C48.0226 24.3303 48.2793 24.6969 48.4475 25.1057C48.6158 25.5145 48.6915 25.9556 48.6691 26.3971ZM48.166 51.2541H42.6913V31.9698H48.1561L48.166 51.2541Z" fill="#05014A"/>
<path d="M63.4442 36.8082C62.9411 36.6882 62.3807 36.5561 61.7191 36.4229C61.0187 36.2876 60.3066 36.2223 59.5933 36.228C59.1823 36.2324 58.772 36.2622 58.3647 36.3172C58.001 36.359 57.6408 36.4271 57.2869 36.5209V51.2463H51.821V36.3733C51.8183 35.3694 52.1558 34.3941 52.7783 33.6065C53.4008 32.8188 54.2717 32.2652 55.2492 32.0358H55.2844C56.7471 31.7158 58.2413 31.5622 59.7386 31.5779C60.0322 31.5779 60.3866 31.5955 60.802 31.6307C61.2182 31.6692 61.6321 31.7188 62.0604 31.7793C62.4886 31.8399 62.8904 31.9125 63.3165 31.9995C63.6802 32.07 64.0366 32.1743 64.381 32.3111L63.4442 36.8082Z" fill="#05014A"/>
<path d="M30.8139 31.4568C32.176 31.4233 33.5346 31.6092 34.8376 32.0072C35.8139 32.3116 36.7006 32.8506 37.4203 33.5771C38.0775 34.2819 38.5489 35.1392 38.792 36.0717C39.0726 37.14 39.207 38.2413 39.1916 39.3457V50.0992C39.1915 50.2719 39.1321 50.4393 39.0233 50.5734C38.9144 50.7075 38.7628 50.8001 38.5938 50.8357C37.8849 50.9825 36.9968 51.1429 35.9297 51.3168C34.2557 51.5698 32.564 51.6869 30.8711 51.6669C29.7313 51.676 28.5937 51.5653 27.4771 51.3366C26.5425 51.1492 25.6529 50.7832 24.857 50.2588C24.1321 49.7655 23.5503 49.0895 23.1704 48.2993C22.7531 47.3654 22.5521 46.3493 22.5825 45.3269C22.5516 44.3293 22.7864 43.3415 23.2629 42.4646C23.6996 41.6973 24.3238 41.0534 25.0771 40.593C25.8809 40.1109 26.7616 39.7705 27.6807 39.5868C28.6813 39.3767 29.7012 39.2719 30.7236 39.2742C31.3545 39.2705 31.9851 39.301 32.6127 39.3656C33.0641 39.4104 33.5113 39.4903 33.9503 39.6044V39.1002C33.969 38.6898 33.9037 38.2798 33.7583 37.8956C33.6129 37.5113 33.3905 37.1607 33.1048 36.8654C32.5441 36.3025 31.5669 36.0218 30.1732 36.0233C29.2522 36.0213 28.3323 36.0868 27.4209 36.2192C26.8994 36.294 26.3826 36.3987 25.8731 36.533C25.6795 36.5836 25.4738 36.5554 25.301 36.4544C25.1282 36.3535 25.0026 36.1881 24.9516 35.9946C24.9461 35.9726 24.9406 35.9495 24.9373 35.9275L24.4816 33.0498C24.453 32.8659 24.4934 32.678 24.595 32.5221C24.6966 32.3662 24.8523 32.2534 25.032 32.2054L25.5703 32.0744C26.0481 31.9643 26.5766 31.8685 27.1292 31.7804C27.6818 31.6924 28.2851 31.623 28.9071 31.5603C29.5405 31.4933 30.1769 31.4587 30.8139 31.4568ZM31.2542 47.4417C31.7926 47.4417 32.3045 47.4296 32.7955 47.4064C32.9683 47.4064 33.1323 47.3855 33.2854 47.3734C33.4734 47.3563 33.6481 47.2692 33.775 47.1293C33.9018 46.9894 33.9714 46.807 33.9701 46.6182V43.1548C33.7499 43.1075 33.4197 43.0568 32.9793 43.0095C32.5773 42.9634 32.173 42.9388 31.7683 42.9357C31.2839 42.9335 30.7998 42.9644 30.3196 43.0282C29.9068 43.0766 29.505 43.1935 29.1306 43.3739C28.8042 43.5289 28.5257 43.7693 28.3248 44.0696C28.1187 44.3989 28.0163 44.7824 28.0308 45.1705C28.0308 46.0278 28.3185 46.6204 28.8939 46.9485C29.4653 47.2754 30.2502 47.4417 31.2542 47.4417Z" fill="#05014A"/>
<path d="M23.286 55.2305H24.8977C25.3238 55.2305 25.6078 55.3284 25.8445 55.5607C25.9244 55.6416 25.9867 55.7381 26.0276 55.8442C26.0686 55.9503 26.0871 56.0636 26.0823 56.1772C26.0862 56.3484 26.0385 56.5168 25.9455 56.6605C25.8524 56.8042 25.7182 56.9166 25.5604 56.9831C25.9865 57.1251 26.2716 57.3629 26.2716 57.8836C26.2716 58.5001 25.7509 58.8744 24.9506 58.8744H23.286V55.2305ZM24.803 56.6958C25.2291 56.6958 25.4636 56.5537 25.4636 56.2224C25.4636 55.9383 25.2269 55.749 24.8471 55.749H23.9476V56.6958H24.803ZM24.945 58.2128C25.3722 58.2128 25.6562 58.0234 25.6562 57.691C25.6562 57.4069 25.4184 57.2176 24.8977 57.2176H23.9069V58.2084L24.945 58.2128Z" fill="url(#paint0_radial_1227_1010)"/>
<path d="M27.5981 57.3629L26.1769 55.182H26.9354L27.9262 56.7497L28.917 55.182H29.6282L28.2058 57.3144V58.7368H27.5893V57.3629H27.5981Z" fill="url(#paint1_radial_1227_1010)"/>
<path d="M30.8678 58.2623L31.2476 57.8351C31.5779 58.1202 31.9081 58.3096 32.3848 58.3096C32.7646 58.3096 33.0002 58.1202 33.0002 57.8351C33.0002 57.5984 32.8582 57.4564 32.1955 57.2671C31.437 57.0777 31.0109 56.8399 31.0109 56.1772C31.0109 55.5607 31.5316 55.1346 32.2428 55.1346C32.7646 55.1346 33.1914 55.2767 33.5231 55.5607L33.1929 56.0352C32.8626 55.7985 32.5323 55.6565 32.245 55.6565C31.8652 55.6565 31.6758 55.8447 31.6758 56.0825C31.6758 56.3676 31.8179 56.4612 32.529 56.6517C33.2875 56.8399 33.6674 57.125 33.6674 57.6931C33.6674 58.3536 33.1455 58.7841 32.387 58.7841C32.1114 58.8073 31.8341 58.7729 31.5725 58.683C31.3109 58.5932 31.071 58.4499 30.8678 58.2623Z" fill="url(#paint2_radial_1227_1010)"/>
<path d="M34.0912 55.2305H34.7517L35.8416 56.9357L36.9326 55.2305H37.5931V58.7874H36.9766V56.2246L35.8394 57.9309L34.7022 56.2719V58.8271H34.0868L34.0912 55.2305Z" fill="url(#paint3_radial_1227_1010)"/>
<path d="M39.4933 55.182H40.0624L41.629 58.7874H40.9684L40.5897 57.9342H38.8768L38.4981 58.7874H37.8375L39.4933 55.182ZM40.3949 57.3629L39.7806 55.9405L39.1641 57.3629H40.3949Z" fill="url(#paint4_radial_1227_1010)"/>
<path d="M41.9625 55.2305H42.579V58.215H44.4758V58.7874H41.9625V55.2305Z" fill="url(#paint5_radial_1227_1010)"/>
<path d="M44.8062 55.2305H45.4227V58.215H47.3184V58.7874H44.8062V55.2305Z" fill="url(#paint6_radial_1227_1010)"/>
<path d="M47.4064 58.2623L47.7862 57.8352C48.1165 58.1203 48.4468 58.3097 48.9235 58.3097C49.3033 58.3097 49.54 58.1203 49.54 57.8352C49.54 57.5985 49.3979 57.4565 48.7341 57.2671C47.9756 57.0778 47.5462 56.84 47.5462 56.1816C47.5462 55.5662 48.067 55.1402 48.777 55.1402C49.3003 55.1402 49.7271 55.2822 50.0574 55.5662L49.7271 56.0396C49.3968 55.8029 49.0666 55.6609 48.7781 55.6609C48.3994 55.6609 48.2101 55.8503 48.2101 56.087C48.2101 56.3721 48.3521 56.4668 49.0633 56.6561C49.8218 56.8455 50.2005 57.1306 50.2005 57.6987C50.2005 58.3592 49.6798 58.7885 48.9202 58.7885C48.6451 58.8105 48.3686 58.7751 48.108 58.6845C47.8474 58.5939 47.6085 58.4501 47.4064 58.2623Z" fill="url(#paint7_radial_1227_1010)"/>
<path d="M50.6298 55.2305H51.2904L52.3813 56.9357L53.4712 55.2305H54.1317V58.7874H53.5175V56.2246L52.3791 57.9309L51.2463 56.2719V58.8271H50.6309L50.6298 55.2305Z" fill="url(#paint8_radial_1227_1010)"/>
<path d="M56.0352 55.182H56.6044L58.1687 58.7874H57.5082L57.1295 57.9342H55.4154L55.0367 58.7874H54.3762L56.0352 55.182ZM56.9357 57.3629L56.3192 55.9405L55.7049 57.3629H56.9357Z" fill="url(#paint9_radial_1227_1010)"/>
<path d="M58.4968 55.2305H59.1177V58.215H61.0134V58.7874H58.4968V55.2305Z" fill="url(#paint10_radial_1227_1010)"/>
<path d="M61.3404 55.2305H61.9558V58.215H63.8515V58.7874H61.3404V55.2305Z" fill="url(#paint11_radial_1227_1010)"/>
<path d="M83.7402 15.2065C82.4117 13.896 80.617 13.1669 78.751 13.1796C76.8849 13.1923 75.1003 13.9458 73.7898 15.2742C72.4793 16.6027 71.7502 18.3974 71.7629 20.2635C71.7756 22.1295 72.529 23.9141 73.8575 25.2246C76.6218 27.9526 82.9596 29.7845 85.6865 27.0202C88.4134 24.2558 86.5034 17.9345 83.7402 15.2065Z" fill="url(#paint12_linear_1227_1010)"/>
<path d="M71.8505 36.4097C71.21 37.0279 70.6986 37.7672 70.3458 38.5845C69.9931 39.4019 69.8061 40.2812 69.7957 41.1714C69.7853 42.0615 69.9516 42.9449 70.2851 43.7703C70.6186 44.5957 71.1126 45.3468 71.7385 45.9798C72.3644 46.6129 73.1097 47.1155 73.9312 47.4584C74.7528 47.8014 75.6342 47.9778 76.5244 47.9776C77.4147 47.9774 78.296 47.8005 79.1174 47.4572C79.9387 47.1138 80.6838 46.6109 81.3094 45.9775C81.3171 45.9687 81.3259 45.961 81.3336 45.9533L81.4062 45.8795C84.0208 43.2374 85.7845 37.1825 83.1467 34.5679C80.509 31.9533 74.4651 33.7741 71.8505 36.4097Z" fill="url(#paint13_linear_1227_1010)"/>
<path d="M84.0253 52.6819C83.8573 53.3306 83.8206 54.0063 83.9171 54.6694C84.0137 55.3326 84.2416 55.9697 84.5875 56.5436C84.9335 57.1175 85.3905 57.6166 85.9319 58.0116C86.4732 58.4066 87.0879 58.6896 87.74 58.844C88.3921 58.9983 89.0684 59.021 89.7294 58.9106C90.3903 58.8003 91.0226 58.5591 91.5892 58.2012C92.1557 57.8433 92.6451 57.376 93.0288 56.8266C93.4124 56.2771 93.6825 55.6566 93.8232 55.0015C93.8562 54.8649 93.8804 54.7262 93.9035 54.5875C94.4309 51.8595 93.0052 47.3591 90.2706 46.8329C87.536 46.3066 84.5482 49.9528 84.0253 52.6819Z" fill="url(#paint14_linear_1227_1010)"/>
<path d="M101.612 53.992C102.975 55.2573 104.784 55.9314 106.642 55.8668C108.501 55.8022 110.258 55.0042 111.53 53.6473C112.802 52.2904 113.485 50.485 113.429 48.626C113.374 46.7671 112.584 45.0057 111.234 43.7273C108.402 41.0708 102.019 39.4019 99.3639 42.2356C96.7086 45.0693 98.7771 51.3355 101.612 53.992Z" fill="url(#paint15_linear_1227_1010)"/>
<path d="M112.951 32.4916C113.575 31.857 114.066 31.1049 114.398 30.279C114.729 29.453 114.893 28.5696 114.88 27.6798C114.867 26.7901 114.678 25.9117 114.324 25.0955C113.969 24.2793 113.456 23.5416 112.814 22.925C112.173 22.3085 111.415 21.8253 110.586 21.5036C109.756 21.1818 108.871 21.0278 107.981 21.0505C107.092 21.0732 106.216 21.2722 105.403 21.6359C104.591 21.9996 103.859 22.5208 103.25 23.1693L103.226 23.1935L103.155 23.2695C100.61 25.9744 99.0017 32.0766 101.706 34.6218C104.409 37.1671 110.406 35.1921 112.951 32.4916Z" fill="url(#paint16_linear_1227_1010)"/>
<path d="M100.961 16.281C101.13 15.6416 101.171 14.9752 101.083 14.3198C100.994 13.6644 100.777 13.033 100.444 12.4615C100.111 11.89 99.6691 11.3896 99.1429 10.989C98.6167 10.5884 98.0168 10.2953 97.3774 10.1265C96.7379 9.95771 96.0715 9.91652 95.4162 10.0053C94.7608 10.094 94.1294 10.311 93.5579 10.6438C92.9864 10.9766 92.486 11.4187 92.0854 11.9449C91.6847 12.4711 91.3917 13.071 91.2229 13.7104C91.1865 13.8458 91.159 13.9835 91.1326 14.1222C90.5348 16.8359 91.8449 21.3715 94.5586 21.9671C97.2722 22.5627 100.364 18.9958 100.961 16.281Z" fill="url(#paint17_linear_1227_1010)"/>
<defs>
<radialGradient id="paint0_radial_1227_1010" cx="0" cy="0" r="1" gradientUnits="userSpaceOnUse" gradientTransform="translate(23.6438 58.423) scale(39.763 39.7629)">
<stop offset="0.32" stop-color="#3DB54A"/>
<stop offset="0.85" stop-color="#8FC640"/>
</radialGradient>
<radialGradient id="paint1_radial_1227_1010" cx="0" cy="0" r="1" gradientUnits="userSpaceOnUse" gradientTransform="translate(23.6437 58.423) scale(39.763 39.7629)">
<stop offset="0.32" stop-color="#3DB54A"/>
<stop offset="0.85" stop-color="#8FC640"/>
</radialGradient>
<radialGradient id="paint2_radial_1227_1010" cx="0" cy="0" r="1" gradientUnits="userSpaceOnUse" gradientTransform="translate(23.6438 58.423) scale(39.763 39.7629)">
<stop offset="0.32" stop-color="#3DB54A"/>
<stop offset="0.85" stop-color="#8FC640"/>
</radialGradient>
<radialGradient id="paint3_radial_1227_1010" cx="0" cy="0" r="1" gradientUnits="userSpaceOnUse" gradientTransform="translate(23.6438 58.423) scale(39.763 39.7629)">
<stop offset="0.32" stop-color="#3DB54A"/>
<stop offset="0.85" stop-color="#8FC640"/>
</radialGradient>
<radialGradient id="paint4_radial_1227_1010" cx="0" cy="0" r="1" gradientUnits="userSpaceOnUse" gradientTransform="translate(23.6438 58.423) scale(39.763)">
<stop offset="0.32" stop-color="#3DB54A"/>
<stop offset="0.85" stop-color="#8FC640"/>
</radialGradient>
<radialGradient id="paint5_radial_1227_1010" cx="0" cy="0" r="1" gradientUnits="userSpaceOnUse" gradientTransform="translate(23.6438 58.423) scale(39.7629 39.763)">
<stop offset="0.32" stop-color="#3DB54A"/>
<stop offset="0.85" stop-color="#8FC640"/>
</radialGradient>
<radialGradient id="paint6_radial_1227_1010" cx="0" cy="0" r="1" gradientUnits="userSpaceOnUse" gradientTransform="translate(23.6438 58.423) scale(39.763 39.763)">
<stop offset="0.32" stop-color="#3DB54A"/>
<stop offset="0.85" stop-color="#8FC640"/>
</radialGradient>
<radialGradient id="paint7_radial_1227_1010" cx="0" cy="0" r="1" gradientUnits="userSpaceOnUse" gradientTransform="translate(23.6416 58.423) scale(39.7663 39.7663)">
<stop offset="0.32" stop-color="#3DB54A"/>
<stop offset="0.85" stop-color="#8FC640"/>
</radialGradient>
<radialGradient id="paint8_radial_1227_1010" cx="0" cy="0" r="1" gradientUnits="userSpaceOnUse" gradientTransform="translate(23.6438 58.423) scale(39.763 39.7629)">
<stop offset="0.32" stop-color="#3DB54A"/>
<stop offset="0.85" stop-color="#8FC640"/>
</radialGradient>
<radialGradient id="paint9_radial_1227_1010" cx="0" cy="0" r="1" gradientUnits="userSpaceOnUse" gradientTransform="translate(23.6438 58.423) scale(39.763 39.763)">
<stop offset="0.32" stop-color="#3DB54A"/>
<stop offset="0.85" stop-color="#8FC640"/>
</radialGradient>
<radialGradient id="paint10_radial_1227_1010" cx="0" cy="0" r="1" gradientUnits="userSpaceOnUse" gradientTransform="translate(23.6438 58.423) scale(39.7629 39.763)">
<stop offset="0.32" stop-color="#3DB54A"/>
<stop offset="0.85" stop-color="#8FC640"/>
</radialGradient>
<radialGradient id="paint11_radial_1227_1010" cx="0" cy="0" r="1" gradientUnits="userSpaceOnUse" gradientTransform="translate(23.6438 58.423) scale(39.763 39.763)">
<stop offset="0.32" stop-color="#3DB54A"/>
<stop offset="0.85" stop-color="#8FC640"/>
</radialGradient>
<linearGradient id="paint12_linear_1227_1010" x1="72.2842" y1="18.6162" x2="87.7746" y2="22.6086" gradientUnits="userSpaceOnUse">
<stop stop-color="#F89521"/>
<stop offset="1" stop-color="#FFDE11"/>
</linearGradient>
<linearGradient id="paint13_linear_1227_1010" x1="70.6144" y1="38.5669" x2="84.094" y2="42.041" gradientUnits="userSpaceOnUse">
<stop offset="0.32" stop-color="#3DB54A"/>
<stop offset="0.85" stop-color="#8FC640"/>
</linearGradient>
<linearGradient id="paint14_linear_1227_1010" x1="84.3324" y1="51.8349" x2="94.199" y2="53.8477" gradientUnits="userSpaceOnUse">
<stop offset="0.32" stop-color="#EF4237"/>
<stop offset="0.85" stop-color="#F26522"/>
</linearGradient>
<linearGradient id="paint15_linear_1227_1010" x1="113.452" y1="48.4754" x2="97.9603" y2="44.8022" gradientUnits="userSpaceOnUse">
<stop stop-color="#692977"/>
<stop offset="0.34" stop-color="#7E2A83"/>
<stop offset="0.69" stop-color="#8D2A8B"/>
<stop offset="0.99" stop-color="#922A8E"/>
</linearGradient>
<linearGradient id="paint16_linear_1227_1010" x1="114.727" y1="28.5929" x2="101.247" y2="25.3965" gradientUnits="userSpaceOnUse">
<stop stop-color="#9ADBF9"/>
<stop offset="1" stop-color="#00AEEF"/>
</linearGradient>
<linearGradient id="paint17_linear_1227_1010" x1="101.232" y1="15.4686" x2="91.4642" y2="13.1526" gradientUnits="userSpaceOnUse">
<stop offset="0.01" stop-color="#DB1C5E"/>
<stop offset="0.32" stop-color="#E01A5D"/>
<stop offset="0.66" stop-color="#ED1459"/>
</linearGradient>
</defs>
</svg>
